<svg width="152" height="209" viewBox="0 0 152 209" fill="#000000" xmlns="http://www.w3.org/2000/svg">
<path d="M77.895 109.175C77.895 111.515 77.76 113.99 77.49 116.6H18.36C18.81 123.89 21.285 129.605 25.785 133.745C30.375 137.795 35.91 139.82 42.39 139.82C47.7 139.82 52.11 138.605 55.62 136.175C59.22 133.655 61.74 130.325 63.18 126.185H76.41C74.43 133.295 70.47 139.1 64.53 143.6C58.59 148.01 51.21 150.215 42.39 150.215C35.37 150.215 29.07 148.64 23.49 145.49C18 142.34 13.68 137.885 10.53 132.125C7.38 126.275 5.805 119.525 5.805 111.875C5.805 104.225 7.335 97.52 10.395 91.76C13.455 86 17.73 81.59 23.22 78.53C28.8 75.38 35.19 73.805 42.39 73.805C49.41 73.805 55.62 75.335 61.02 78.395C66.42 81.455 70.56 85.685 73.44 91.085C76.41 96.395 77.895 102.425 77.895 109.175ZM65.205 106.61C65.205 101.93 64.17 97.925 62.1 94.595C60.03 91.175 57.195 88.61 53.595 86.9C50.085 85.1 46.17 84.2 41.85 84.2C35.64 84.2 30.33 86.18 25.92 90.14C21.6 94.1 19.125 99.59 18.495 106.61H65.205Z" fill="white"/>
<path d="M67.805 111.74C67.805 104.18 69.335 97.565 72.395 91.895C75.455 86.135 79.64 81.68 84.95 78.53C90.35 75.38 96.38 73.805 103.04 73.805C108.8 73.805 114.155 75.155 119.105 77.855C124.055 80.465 127.835 83.93 130.445 88.25V49.1H142.865V149H130.445V135.095C128.015 139.505 124.415 143.15 119.645 146.03C114.875 148.82 109.295 150.215 102.905 150.215C96.335 150.215 90.35 148.595 84.95 145.355C79.64 142.115 75.455 137.57 72.395 131.72C69.335 125.87 67.805 119.21 67.805 111.74ZM130.445 111.875C130.445 106.295 129.32 101.435 127.07 97.295C124.82 93.155 121.76 90.005 117.89 87.845C114.11 85.595 109.925 84.47 105.335 84.47C100.745 84.47 96.56 85.55 92.78 87.71C89 89.87 85.985 93.02 83.735 97.16C81.485 101.3 80.36 106.16 80.36 111.74C80.36 117.41 81.485 122.36 83.735 126.59C85.985 130.73 89 133.925 92.78 136.175C96.56 138.335 100.745 139.415 105.335 139.415C109.925 139.415 114.11 138.335 117.89 136.175C121.76 133.925 124.82 130.73 127.07 126.59C129.32 122.36 130.445 117.455 130.445 111.875Z" fill="white"/>
<path d="M25.72 182C25.72 179.733 26.1733 177.76 27.08 176.08C27.9867 174.373 29.24 173.053 30.84 172.12C32.4667 171.187 34.32 170.72 36.4 170.72C39.0933 170.72 41.3067 171.373 43.04 172.68C44.8 173.987 45.96 175.8 46.52 178.12H42.6C42.2267 176.787 41.4933 175.733 40.4 174.96C39.3333 174.187 38 173.8 36.4 173.8C34.32 173.8 32.64 174.52 31.36 175.96C30.08 177.373 29.44 179.387 29.44 182C29.44 184.64 30.08 186.68 31.36 188.12C32.64 189.56 34.32 190.28 36.4 190.28C38 190.28 39.3333 189.907 40.4 189.16C41.4667 188.413 42.2 187.347 42.6 185.96H46.52C45.9333 188.2 44.76 190 43 191.36C41.24 192.693 39.04 193.36 36.4 193.36C34.32 193.36 32.4667 192.893 30.84 191.96C29.24 191.027 27.9867 189.707 27.08 188C26.1733 186.293 25.72 184.293 25.72 182ZM60.9369 193.36C58.8835 193.36 57.0169 192.893 55.3369 191.96C53.6835 191.027 52.3769 189.707 51.4169 188C50.4835 186.267 50.0169 184.267 50.0169 182C50.0169 179.76 50.4969 177.787 51.4569 176.08C52.4435 174.347 53.7769 173.027 55.4569 172.12C57.1369 171.187 59.0169 170.72 61.0969 170.72C63.1769 170.72 65.0569 171.187 66.7369 172.12C68.4169 173.027 69.7369 174.333 70.6969 176.04C71.6835 177.747 72.1769 179.733 72.1769 182C72.1769 184.267 71.6702 186.267 70.6569 188C69.6702 189.707 68.3235 191.027 66.6169 191.96C64.9102 192.893 63.0169 193.36 60.9369 193.36ZM60.9369 190.16C62.2435 190.16 63.4702 189.853 64.6169 189.24C65.7635 188.627 66.6835 187.707 67.3769 186.48C68.0969 185.253 68.4569 183.76 68.4569 182C68.4569 180.24 68.1102 178.747 67.4169 177.52C66.7235 176.293 65.8169 175.387 64.6969 174.8C63.5769 174.187 62.3635 173.88 61.0569 173.88C59.7235 173.88 58.4969 174.187 57.3769 174.8C56.2835 175.387 55.4035 176.293 54.7369 177.52C54.0702 178.747 53.7369 180.24 53.7369 182C53.7369 183.787 54.0569 185.293 54.6969 186.52C55.3635 187.747 56.2435 188.667 57.3369 189.28C58.4302 189.867 59.6302 190.16 60.9369 190.16ZM75.6028 181.96C75.6028 179.72 76.0561 177.76 76.9628 176.08C77.8695 174.373 79.1095 173.053 80.6828 172.12C82.2828 171.187 84.0695 170.72 86.0428 170.72C87.7495 170.72 89.3361 171.12 90.8028 171.92C92.2695 172.693 93.3895 173.72 94.1628 175V163.4H97.8428V193H94.1628V188.88C93.4428 190.187 92.3761 191.267 90.9628 192.12C89.5495 192.947 87.8961 193.36 86.0028 193.36C84.0561 193.36 82.2828 192.88 80.6828 191.92C79.1095 190.96 77.8695 189.613 76.9628 187.88C76.0561 186.147 75.6028 184.173 75.6028 181.96ZM94.1628 182C94.1628 180.347 93.8295 178.907 93.1628 177.68C92.4961 176.453 91.5895 175.52 90.4428 174.88C89.3228 174.213 88.0828 173.88 86.7228 173.88C85.3628 173.88 84.1228 174.2 83.0028 174.84C81.8828 175.48 80.9895 176.413 80.3228 177.64C79.6561 178.867 79.3228 180.307 79.3228 181.96C79.3228 183.64 79.6561 185.107 80.3228 186.36C80.9895 187.587 81.8828 188.533 83.0028 189.2C84.1228 189.84 85.3628 190.16 86.7228 190.16C88.0828 190.16 89.3228 189.84 90.4428 189.2C91.5895 188.533 92.4961 187.587 93.1628 186.36C93.8295 185.107 94.1628 183.653 94.1628 182ZM123.994 181.2C123.994 181.893 123.954 182.627 123.874 183.4H106.354C106.487 185.56 107.221 187.253 108.554 188.48C109.914 189.68 111.554 190.28 113.474 190.28C115.047 190.28 116.354 189.92 117.394 189.2C118.461 188.453 119.207 187.467 119.634 186.24H123.554C122.967 188.347 121.794 190.067 120.034 191.4C118.274 192.707 116.087 193.36 113.474 193.36C111.394 193.36 109.527 192.893 107.874 191.96C106.247 191.027 104.967 189.707 104.034 188C103.101 186.267 102.634 184.267 102.634 182C102.634 179.733 103.087 177.747 103.994 176.04C104.901 174.333 106.167 173.027 107.794 172.12C109.447 171.187 111.341 170.72 113.474 170.72C115.554 170.72 117.394 171.173 118.994 172.08C120.594 172.987 121.821 174.24 122.674 175.84C123.554 177.413 123.994 179.2 123.994 181.2ZM120.234 180.44C120.234 179.053 119.927 177.867 119.314 176.88C118.701 175.867 117.861 175.107 116.794 174.6C115.754 174.067 114.594 173.8 113.314 173.8C111.474 173.8 109.901 174.387 108.594 175.56C107.314 176.733 106.581 178.36 106.394 180.44H120.234Z" fill="white"/>
</svg>
