<svg width="142" height="31" viewBox="0 0 142 31" fill="none" xmlns="http://www.w3.org/2000/svg">
<path d="M8.56797 24.84L0.447969 16L8.56797 7.16H17.168L9.00797 16L17.168 24.84H8.56797ZM57.5658 30.32C55.3791 30.32 53.4058 29.8533 51.6458 28.92C49.9124 27.9867 48.5391 26.6533 47.5258 24.92C46.5391 23.1867 46.0458 21.16 46.0458 18.84C46.0458 16.5467 46.5524 14.5333 47.5658 12.8C48.5791 11.04 49.9658 9.69333 51.7258 8.76C53.4858 7.82667 55.4591 7.36 57.6458 7.36C59.8324 7.36 61.8058 7.82667 63.5658 8.76C65.3258 9.69333 66.7124 11.04 67.7258 12.8C68.7391 14.5333 69.2458 16.5467 69.2458 18.84C69.2458 21.1333 68.7258 23.16 67.6858 24.92C66.6724 26.6533 65.2724 27.9867 63.4858 28.92C61.7258 29.8533 59.7524 30.32 57.5658 30.32ZM57.5658 24.4C58.8724 24.4 59.9791 23.92 60.8858 22.96C61.8191 22 62.2858 20.6267 62.2858 18.84C62.2858 17.0533 61.8324 15.68 60.9258 14.72C60.0458 13.76 58.9524 13.28 57.6458 13.28C56.3124 13.28 55.2058 13.76 54.3258 14.72C53.4458 15.6533 53.0058 17.0267 53.0058 18.84C53.0058 20.6267 53.4324 22 54.2858 22.96C55.1658 23.92 56.2591 24.4 57.5658 24.4ZM71.5145 18.8C71.5145 16.5067 71.9412 14.4933 72.7945 12.76C73.6745 11.0267 74.8612 9.69333 76.3545 8.76C77.8479 7.82667 79.5145 7.36 81.3545 7.36C82.8212 7.36 84.1545 7.66666 85.3545 8.28C86.5812 8.89333 87.5412 9.72 88.2345 10.76V0.4H95.0745V30H88.2345V26.8C87.5945 27.8667 86.6745 28.72 85.4745 29.36C84.3012 30 82.9279 30.32 81.3545 30.32C79.5145 30.32 77.8479 29.8533 76.3545 28.92C74.8612 27.96 73.6745 26.6133 72.7945 24.88C71.9412 23.12 71.5145 21.0933 71.5145 18.8ZM88.2345 18.84C88.2345 17.1333 87.7545 15.7867 86.7945 14.8C85.8612 13.8133 84.7145 13.32 83.3545 13.32C81.9945 13.32 80.8345 13.8133 79.8745 14.8C78.9412 15.76 78.4745 17.0933 78.4745 18.8C78.4745 20.5067 78.9412 21.8667 79.8745 22.88C80.8345 23.8667 81.9945 24.36 83.3545 24.36C84.7145 24.36 85.8612 23.8667 86.7945 22.88C87.7545 21.8933 88.2345 20.5467 88.2345 18.84ZM121.063 18.48C121.063 19.12 121.023 19.7867 120.943 20.48H105.463C105.57 21.8667 106.01 22.9333 106.783 23.68C107.583 24.4 108.556 24.76 109.703 24.76C111.41 24.76 112.596 24.04 113.263 22.6H120.543C120.17 24.0667 119.49 25.3867 118.503 26.56C117.543 27.7333 116.33 28.6533 114.863 29.32C113.396 29.9867 111.756 30.32 109.943 30.32C107.756 30.32 105.81 29.8533 104.103 28.92C102.396 27.9867 101.063 26.6533 100.103 24.92C99.143 23.1867 98.663 21.16 98.663 18.84C98.663 16.52 99.1296 14.4933 100.063 12.76C101.023 11.0267 102.356 9.69333 104.063 8.76C105.77 7.82667 107.73 7.36 109.943 7.36C112.103 7.36 114.023 7.81333 115.703 8.72C117.383 9.62667 118.69 10.92 119.623 12.6C120.583 14.28 121.063 16.24 121.063 18.48ZM114.063 16.68C114.063 15.5067 113.663 14.5733 112.863 13.88C112.063 13.1867 111.063 12.84 109.863 12.84C108.716 12.84 107.743 13.1733 106.943 13.84C106.17 14.5067 105.69 15.4533 105.503 16.68H114.063ZM124.711 7.16H133.311L141.431 16L133.311 24.84H124.711L132.871 16L124.711 7.16Z" fill="white"/>
<path d="M36.3192 30L29.5192 20.64V30H22.6792V0.4H29.5192V16.76L36.2792 7.68H44.7192L35.4392 18.88L44.7992 30H36.3192Z" fill="#AB99FF"/>
</svg>
